<svg width="26" height="26" viewBox="0 0 26 26" fill="none" xmlns="http://www.w3.org/2000/svg">
<path d="M25.2569 10.5519H24.25V10.5H13V15.5H20.0644C19.0338 18.4106 16.2644 20.5 13 20.5C8.85812 20.5 5.5 17.1419 5.5 13C5.5 8.85812 8.85812 5.5 13 5.5C14.9119 5.5 16.6513 6.22125 17.9756 7.39937L21.5112 3.86375C19.2787 1.78312 16.2925 0.5 13 0.5C6.09688 0.5 0.5 6.09688 0.5 13C0.5 19.9031 6.09688 25.5 13 25.5C19.9031 25.5 25.5 19.9031 25.5 13C25.5 12.1619 25.4137 11.3438 25.2569 10.5519Z" fill="#FFC107"/>
<path d="M1.94125 7.18187L6.04813 10.1937C7.15938 7.4425 9.85063 5.5 13 5.5C14.9119 5.5 16.6513 6.22125 17.9756 7.39937L21.5113 3.86375C19.2788 1.78312 16.2925 0.5 13 0.5C8.19875 0.5 4.035 3.21062 1.94125 7.18187Z" fill="#FF3D00"/>
<path d="M13 25.5C16.2287 25.5 19.1625 24.2644 21.3806 22.255L17.5119 18.9813C16.2147 19.9677 14.6297 20.5013 13 20.5C9.74875 20.5 6.98812 18.4269 5.94812 15.5338L1.87187 18.6744C3.94062 22.7225 8.14187 25.5 13 25.5Z" fill="#4CAF50"/>
<path d="M25.2569 10.5519H24.25V10.5H13V15.5H20.0644C19.5714 16.8853 18.6833 18.0957 17.51 18.9819L17.5119 18.9806L21.3806 22.2544C21.1069 22.5031 25.5 19.25 25.5 13C25.5 12.1619 25.4137 11.3438 25.2569 10.5519Z" fill="#1976D2"/>
</svg>
